<svg width="1012" height="1024" viewBox="0 0 1012 1024" fill="none" xmlns="http://www.w3.org/2000/svg">
<path d="M320 1024C207.99 1024 151.984 1024 109.202 1002.2C71.5695 983.027 40.9734 952.431 21.7987 914.798C0 872.016 0 816.011 0 704V320C0 207.989 0 151.984 21.7987 109.202C40.9734 71.5695 71.5695 40.9734 109.202 21.7987C151.984 0 207.989 0 320 0H692C804.01 0 860.016 0 902.798 21.7987C940.431 40.9734 971.027 71.5695 990.201 109.202C1012 151.984 1012 207.989 1012 320V704C1012 816.011 1012 872.016 990.201 914.798C971.027 952.431 940.431 983.027 902.798 1002.2C860.016 1024 804.011 1024 692 1024H320Z" fill="#57496A" fill-opacity="0.94"/>
<path d="M583 127.64C586.02 126.79 589.85 125.89 591.5 125.64C593.15 125.38 600.13 125.3 607 125.44C618.03 125.68 620.62 126.08 629 128.92C634.23 130.69 641.87 134.02 645.98 136.32C651.04 139.14 656.39 143.44 662.48 149.57C667.72 154.85 673.28 161.65 675.75 165.82C678.09 169.77 681.1 176.26 682.45 180.25C683.176 182.412 683.938 185.218 684.682 188.935C686.13 196.172 690.185 202.709 696.5 206.53C702 209.85 713.02 216.91 721 222.2C728.98 227.5 741.35 236.54 748.5 242.29C755.65 248.04 767.22 258.54 774.21 265.62C781.2 272.7 789.97 282.34 793.71 287.03C797.44 291.72 803.5 300.05 807.17 305.53C810.84 311.01 816.33 320.23 819.36 326C822.39 331.77 825.46 336.8 826.18 337.17C826.91 337.53 829.98 338.82 833 340.04C836.02 341.25 841.42 343.98 845 346.09C848.58 348.21 853.95 352.1 856.94 354.72C859.94 357.35 865.07 363.1 868.35 367.5C871.63 371.9 875.79 378.65 877.59 382.5C879.4 386.35 881.8 393.32 882.93 398C884.21 403.28 884.99 409.91 885.01 415.5C885.02 420.45 884.29 428.1 883.39 432.5C882.49 436.9 879.98 444.32 877.82 449C875.65 453.68 871.44 460.76 868.44 464.75C865.45 468.74 859.96 474.5 856.25 477.56C852.54 480.62 846.35 484.84 842.5 486.94C838.65 489.04 832.58 491.79 829 493.05C825.297 494.354 821.97 495.035 812.201 495.538C804.494 495.935 797.296 499.587 792.65 505.75C788.61 511.11 780.39 520.69 774.4 527.04C768.4 533.38 761.48 540.38 759 542.6C756.52 544.81 749.33 550.91 743 556.14C736.67 561.38 725.88 569.68 719 574.58C712.13 579.49 704.48 584.82 702 586.43C699.52 588.04 691.31 593.11 683.75 597.68C676.19 602.26 669.89 605.98 669.75 605.97C669.61 605.95 662.75 609.59 654.5 614.06C646.25 618.54 634.55 624.92 628.5 628.24C622.45 631.57 613.9 636.33 609.5 638.84C605.1 641.34 596.77 646.53 591 650.36C585.23 654.2 576.9 660.03 572.5 663.33C568.1 666.63 558.18 675.66 550.45 683.41C542.73 691.16 534.03 700.88 531.11 705C528.2 709.13 524.33 715.42 522.52 719C520.71 722.58 518.55 727.75 517.73 730.5C516.9 733.25 514.1 741.35 511.51 748.5C509.276 754.643 505.692 763.066 499.666 774.911C497.701 778.774 497.569 783.328 499.39 787.26C500.99 790.69 502.92 797.1 503.69 801.5C504.51 806.24 504.81 811.53 504.41 814.5C504.04 817.25 502.85 822.2 501.76 825.5C500.68 828.8 499.11 832.85 498.28 834.5C497.45 836.15 494.69 840.26 492.14 843.63C489.59 847.01 484.8 851.82 481.5 854.34C478.2 856.85 472.57 860.17 469 861.7C462.83 864.35 461.74 864.49 447.5 864.46C433.21 864.42 432.17 864.28 425.5 861.49C421.65 859.88 416.02 856.59 413 854.19C409.98 851.78 406.21 848.39 404.64 846.66C403.07 844.92 400.31 841.25 398.5 838.5C396.7 835.75 394.32 830.8 393.21 827.5C392.11 824.2 390.9 818.8 390.52 815.5C390.15 812.2 390.34 805.9 390.96 801.5C391.69 796.22 393.25 791.03 395.54 786.25C397.82 781.47 401.33 776.53 405.85 771.75C410.5 766.83 414.92 763.33 419.6 760.86C423.4 758.87 429.43 756.51 433 755.62C435.747 754.943 440.375 754.361 448.367 754.123C453.353 753.976 457.922 751.208 460.18 746.76C461.864 743.451 465.818 735.374 474.347 717.68C478.2 709.686 480.066 700.87 479.79 692C479.42 679.94 479.02 677.49 476.08 669C474.27 663.77 471.03 656.12 468.88 652C466.73 647.87 461.95 640.45 458.26 635.5C454.56 630.55 447.45 622.45 442.45 617.5C437.45 612.55 429.34 605.46 424.43 601.75C418.6 597.33 409.26 591.89 397.5 586.05C387.6 581.14 374.77 575.55 369 573.63C363.23 571.72 355.35 569.23 351.5 568.1C347.65 566.97 340.68 565.16 336 564.09C331.32 563.01 322.1 560.24 315.5 557.93C308.9 555.62 299.68 551.94 295 549.76C290.32 547.57 283.35 543.95 279.5 541.71C275.65 539.46 268 534.23 262.5 530.08C258.297 526.916 251.524 521.037 240.263 510.143C232.662 502.791 222.574 498.513 212 498.43C198.1 498.32 194.32 497.95 188 496.07C183.88 494.85 177.35 492.26 173.5 490.32C169.65 488.38 164.04 485.15 161.03 483.15C158.02 481.14 153.29 477.25 150.51 474.5C147.73 471.75 143.81 467.48 141.8 465C139.79 462.52 136.34 456.9 134.12 452.5C131.91 448.1 129.17 441.8 128.04 438.5C126.91 435.2 125.5 428.9 124.9 424.5C124.3 420.1 124.11 413.8 124.47 410.5C124.82 407.2 125.79 401.57 126.61 398C127.44 394.43 129.47 388.12 131.13 384C132.79 379.88 136.53 372.9 139.45 368.5C142.37 364.1 147.62 357.85 151.13 354.6C154.63 351.36 160.88 346.74 165 344.34C169.13 341.93 175.88 338.66 180 337.07C184.13 335.47 191.32 333.45 196 332.57C198.647 332.072 202.459 331.635 208.076 331.362C218.447 330.858 228.297 326.368 234.82 318.29C240.49 311.25 249.74 300.77 255.36 295C260.99 289.23 270.75 279.99 277.05 274.47C283.35 268.96 291.65 262.18 295.5 259.4C299.35 256.62 306.77 251.41 312 247.83C317.23 244.24 325.77 238.81 331 235.76C336.23 232.72 346.8 227.06 354.5 223.2C362.2 219.34 371.2 214.97 374.5 213.5C377.8 212.02 385.68 208.8 392 206.33C398.32 203.87 408 200.29 413.5 198.38C419 196.47 429.8 193.3 437.5 191.34C445.2 189.38 454.43 187.13 458 186.35C461.57 185.58 473.73 183.4 485 181.51C494.755 179.874 506.9 177.556 521.687 174.161C526.19 173.128 529.996 170.147 532.13 166.05C533.98 162.5 538.65 156.26 542.5 152.17C546.35 148.09 553.1 142.37 557.5 139.47C561.9 136.57 568.2 133.07 571.5 131.69C574.8 130.32 579.98 128.5 583 127.64Z" fill="#F3F2F5"/>
<path d="M450.5 236.06C457.65 234.96 464.85 233.87 466.5 233.63C468.15 233.39 478.73 233.32 490 233.46C501.521 233.599 508.731 233.95 517.75 235.482C523.343 236.431 528.096 240.023 530.888 244.961L532.742 248.241C534.945 252.139 535.001 256.892 532.89 260.84C531.03 264.33 525.86 271.76 521.41 277.34C516.96 282.93 509.3 291.32 504.38 296C499.47 300.68 490.73 308.42 484.97 313.21C479.21 318.01 469.1 325.63 462.5 330.16C455.9 334.69 446.45 340.73 441.5 343.59C436.55 346.44 426.2 351.7 418.5 355.26C410.8 358.82 399.32 363.57 393 365.81C386.68 368.05 378.12 370.75 374 371.82C369.87 372.89 362.9 374.49 358.5 375.38C354.1 376.28 346.23 377.71 341 378.56C335.77 379.41 327 380.38 321.5 380.71C315.85 381.04 306.71 380.77 300.5 380.07C294.45 379.4 288.99 378.54 288.36 378.17C287.73 377.8 285.63 374.8 283.69 371.5C282.334 369.205 280.063 366 276.195 361.394C272.672 357.2 271.949 351.276 274.63 346.5C277.1 342.1 282.22 334.45 286 329.5C289.77 324.55 296.61 316.49 301.18 311.59C305.76 306.69 313.55 299.28 318.5 295.11C323.45 290.94 332.9 283.9 339.5 279.45C346.1 275 355.32 269.28 360 266.73C364.68 264.19 373.9 259.65 380.5 256.65C387.1 253.65 397 249.63 402.5 247.71C408 245.79 418.12 242.83 425 241.14C431.87 239.45 443.35 237.16 450.5 236.06Z" fill="#57496A" fill-opacity="0.94"/>
<path d="M653.5 270.69C656.8 268.19 661.7 263.88 664.4 261.1C668.48 256.89 669.73 256.15 671.9 256.64C673.33 256.95 678.55 258.55 683.5 260.19C688.45 261.83 697.67 265.64 704 268.65C710.33 271.67 719.77 276.99 725 280.48C730.23 283.97 738.58 290.58 743.58 295.16C748.57 299.75 754.42 305.53 756.58 308.01C758.73 310.49 762.61 315.66 765.18 319.51C767.75 323.35 771.02 329.09 772.43 332.25C773.84 335.41 775 338.23 775 338.5C775 338.77 770.84 341.08 765.75 343.61C760.66 346.15 753.58 350.61 750 353.52C746.42 356.43 741.18 361.67 738.35 365.16C735.52 368.65 731.62 374.65 729.68 378.5C727.74 382.35 725.21 388.88 724.05 393C722.88 397.13 721.84 400.57 721.72 400.66C721.6 400.75 715.42 402.26 708 404.01C700.58 405.76 685.73 410.07 675 413.58C664.27 417.09 655.16 419.97 654.75 419.98C654.34 419.99 647.59 422.49 639.75 425.53C631.91 428.57 621.47 432.74 616.55 434.78C611.63 436.83 597.68 443.49 585.55 449.59C573.42 455.69 559.23 463.29 554 466.47C548.77 469.66 541.12 474.53 537 477.3C532.87 480.07 525.23 485.51 520 489.39C514.77 493.27 506.68 499.69 502 503.64C497.32 507.6 488.05 516.38 481.4 523.17C474.74 529.95 466.64 538.66 463.4 542.52C460.15 546.38 454.8 553.48 451.5 558.3C448.2 563.12 445.16 567.05 444.75 567.03C444.34 567.02 440.96 565.25 437.25 563.12C433.54 560.98 426.9 557.43 422.5 555.22C418.1 553.01 411.12 549.75 407 547.96C402.87 546.17 395 543 389.5 540.92C384 538.84 373.43 534.61 366 531.53C358.57 528.45 348.23 523.63 343 520.83C337.77 518.03 329.68 513.14 325 509.97C320.32 506.8 311.44 499.89 305.25 494.61C298.97 489.24 290.92 481.14 287.03 476.25C282.8 470.94 280.03 466.52 279.98 465C279.94 463.63 280.66 461.82 281.58 461C282.5 460.18 284.77 456.46 286.63 452.75C288.1 449.802 290.044 444.935 292.641 436.643C294.004 432.292 297.645 429.014 302.14 428.25C306.19 427.56 317.82 425.38 328 423.41C338.18 421.44 350.77 418.76 356 417.46C361.23 416.15 371.35 413.12 378.5 410.7C385.65 408.29 397.8 403.72 405.5 400.55C413.2 397.38 426.25 391.53 434.5 387.56C442.75 383.59 455.35 377.06 462.5 373.05C469.65 369.05 482.02 361.39 490 356.03C497.98 350.68 507.7 343.87 511.62 340.9C515.53 337.93 523.18 331.94 528.62 327.59C533.747 323.492 545.321 312.724 570.414 287.601C573.245 284.766 577.389 283.661 581.25 284.73C585.96 286.04 591.44 286.47 603.5 286.48C617.55 286.49 620.41 286.2 627 284.13C631.12 282.83 637.42 280.3 641 278.5C644.58 276.7 650.2 273.18 653.5 270.69Z" fill="#57496A" fill-opacity="0.94"/>
<path d="M689 458.06C694.23 457.47 700.3 456.88 702.5 456.74C704.7 456.61 711 456.78 716.5 457.13C722 457.48 728.42 458.15 730.77 458.63C733.12 459.11 735.03 459.84 735.02 460.25C735.011 460.606 737.373 463.452 745.083 471.786C747.449 474.344 748.078 478.068 746.66 481.25C745.37 484.14 741.7 490.33 738.51 495C735.32 499.68 730.14 506.65 726.99 510.5C723.85 514.35 716.82 521.77 711.37 527C705.93 532.23 696.53 540.46 690.49 545.3C684.44 550.13 672.98 558.29 665 563.42C657.02 568.56 644.42 576.25 637 580.52C629.58 584.79 615.85 592.32 606.5 597.25C597.15 602.19 587.25 607.45 584.5 608.94C581.75 610.44 575.9 613.84 571.5 616.5C567.1 619.16 560.12 623.58 556 626.33C551.87 629.07 545.58 633.59 542 636.37C538.42 639.15 532.24 644.26 528.25 647.71C524.26 651.17 520.66 653.83 520.25 653.63C519.84 653.42 518.65 651.06 517.6 648.38C516.56 645.69 513.91 640.13 511.71 636C509.51 631.88 506.35 626.48 504.68 624C503 621.52 500.05 617.48 498.1 615C496.16 612.52 492.19 607.91 489.29 604.75C484.84 599.92 484.09 598.56 484.58 596.25C484.9 594.74 486.57 590.13 488.3 586C490.03 581.88 495.02 573.1 499.4 566.5C505.56 557.21 510.54 551.33 521.43 540.49C529.17 532.78 540 523.05 545.5 518.86C551 514.67 561.35 507.55 568.5 503.03C575.65 498.52 589.6 490.86 599.5 486.01C609.4 481.16 623.12 475.17 630 472.71C636.87 470.25 646.33 467.1 651 465.7C655.67 464.3 664 462.25 669.5 461.15C675 460.05 683.77 458.66 689 458.06Z" fill="#57496A" fill-opacity="0.94"/>
</svg>
